<svg width="32" height="32" viewBox="0 0 32 32" fill="none" xmlns="http://www.w3.org/2000/svg">
<rect width="32" height="32" rx="8" fill="url(#paint0_linear_9605_5301)"/>
<path d="M23.1303 14.5224V16.5278C23.1303 17.2081 22.9624 17.7183 22.634 18.0584C22.3055 18.3986 21.8384 18.5686 21.2472 18.5686C20.656 18.5686 20.1961 18.3915 19.8677 18.0372C19.532 17.6829 19.3714 17.1585 19.3714 16.464V10.9509H16.5103V16.5136C16.5103 18.0301 16.9263 19.1639 17.7511 19.915C18.5758 20.6662 19.7363 21.0417 21.2253 21.0417C21.8895 21.0488 22.561 20.9567 23.196 20.7654C23.7507 20.5953 24.2616 20.3189 24.6995 19.9434C25.1375 19.5465 25.4732 19.0576 25.663 18.5049C25.8965 17.8388 26.0133 17.1443 25.9987 16.4357V14.5153L23.1303 14.5224Z" fill="white"/>
<path d="M25.9686 10.9509H23.1147V13.7217H25.9686V10.9509Z" fill="white"/>
<path d="M9.69287 11.1069V13.5304V21.0489H12.5248V13.5304H15.6049V11.1069H9.69287Z" fill="white"/>
<path d="M8.86112 11.1069H6V13.8847H8.86112V11.1069Z" fill="white"/>
<defs>
<linearGradient id="paint0_linear_9605_5301" x1="7.296" y1="16" x2="30.6418" y2="15.2372" gradientUnits="userSpaceOnUse">
<stop stop-color="#0099FA"/>
<stop offset="1" stop-color="#002ED9"/>
</linearGradient>
</defs>
</svg>
